<svg xmlns="http://www.w3.org/2000/svg" viewBox="0 0 24 24"><path d="M0,11.52C0,6.0894,0,3.37413,1.68707,1.68707S6.0894,0,11.52,0h.96c5.4306,0,8.14585,0,9.833,1.68707C24,3.37413,24,6.0894,24,11.52v.96c0,5.4306,0,8.14585-1.687,9.833C20.62585,24,17.9106,24,12.48,24h-.96c-5.4306,0-8.14587,0-9.83293-1.687C0,20.62585,0,17.9106,0,12.48Z" fill="#2d79f5"/><path d="M12.77,17.29005c-5.47,0-8.58995-3.75-8.72-9.99h2.74c.09,4.58,2.11,6.52,3.71,6.92v-6.92h2.5801v3.95c1.58-.17,3.2398-1.97,3.7998-3.95H19.46a7.62162,7.62162,0,0,1-3.51,4.98,7.89419,7.89419,0,0,1,4.1101,5.01H17.22a4.9369,4.9369,0,0,0-4.13985-3.57v3.57Z" fill="#fff"/></svg>