<svg xmlns="http://www.w3.org/2000/svg" viewBox="0 0 24 24">
<path fill="orange" d="M17.3,24H6.7A6.71,6.71,0,0,1,0,17.3V6.7A6.71,6.71,0,0,1,6.7,0H17.3A6.71,6.71,0,0,1,24,6.7V17.3A6.71,6.71,0,0,1,17.3,24ZM6.7,1.87A4.84,4.84,0,0,0,1.87,6.7V17.3A4.84,4.84,0,0,0,6.7,22.13H17.3a4.84,4.84,0,0,0,4.83-4.83V6.7A4.84,4.84,0,0,0,17.3,1.87Z"/>
<path fill="orange" d="M12,12.21A3.23,3.23,0,1,0,8.77,9,3.23,3.23,0,0,0,12,12.21Zm0-4.56A1.34,1.34,0,1,1,10.68,9,1.32,1.32,0,0,1,12,7.65Z"/>
<path fill="orange" d="M13.31,14.86a6.13,6.13,0,0,0,1.87-.78.95.95,0,0,0-1-1.6,4.11,4.11,0,0,1-4.35,0,.93.93,0,1,0-1,1.58,6.24,6.24,0,0,0,1.87.78L8.91,16.63a.94.94,0,0,0,0,1.33.88.88,0,0,0,.67.27,1,1,0,0,0,.68-.27L12,16.19,13.81,18a.94.94,0,1,0,1.33-1.33Z"/>
</svg>